<?xml version="1.0" standalone="no"?>
<!DOCTYPE svg PUBLIC "-//W3C//DTD SVG 20010904//EN"
 "http://www.w3.org/TR/2001/REC-SVG-20010904/DTD/svg10.dtd">
<svg version="1.0" xmlns="http://www.w3.org/2000/svg"
 width="140.000000pt" height="140.000000pt" viewBox="0 0 140.000000 140.000000"
 preserveAspectRatio="xMidYMid meet">
<metadata>
Created by potrace 1.10, written by Peter Selinger 2001-2011
</metadata>
<g transform="translate(0.000000,140.000000) scale(0.100000,-0.100000)"
fill="#000000" stroke="none">
<path d="M458 1313 c34 -2 90 -2 125 0 34 2 6 3 -63 3 -69 0 -97 -1 -62 -3z"/>
<path d="M740 1314 c59 -7 370 -9 370 -2 0 5 -89 7 -197 7 -109 -1 -187 -3
-173 -5z"/>
<path d="M253 1303 c15 -2 37 -2 50 0 12 2 0 4 -28 4 -27 0 -38 -2 -22 -4z"/>
<path d="M157 1274 c-18 -10 -27 -21 -23 -30 3 -8 2 -12 -4 -9 -5 3 -16 -8
-25 -26 -22 -42 -36 -441 -26 -754 8 -251 11 -268 71 -319 58 -48 83 -51 555
-51 402 0 444 2 487 18 56 22 93 62 110 120 17 58 18 921 2 937 -9 9 -14 9
-19 -1 -5 -8 -4 -10 3 -5 9 5 12 -33 12 -146 0 -84 2 -187 5 -228 5 -98 -10
-550 -20 -572 -4 -10 -12 -15 -18 -11 -5 3 -8 2 -4 -3 6 -11 -20 -50 -29 -41
-3 3 -15 -3 -27 -14 -11 -10 -37 -20 -56 -21 -20 -1 -54 -3 -76 -4 -93 -6
-581 -4 -705 1 -179 9 -169 7 -162 24 4 10 1 13 -11 8 -17 -6 -39 14 -35 33 2
7 -4 15 -12 17 -12 4 -12 3 -1 -5 7 -6 9 -12 4 -15 -12 -8 -33 35 -33 67 0 12
-3 26 -6 29 -9 8 -9 681 0 727 4 25 3 30 -3 15 -8 -16 -10 -10 -10 25 0 29 3
38 8 27 4 -11 6 12 5 51 -1 38 2 76 7 83 5 8 9 10 9 4 1 -5 7 5 15 23 9 20 27
38 47 47 23 10 27 14 13 14 -11 0 -33 -7 -48 -15z"/>
<path d="M1250 1252 c0 -7 4 -12 9 -12 4 0 13 -15 19 -32 11 -33 12 -33 6 -3
-5 31 -34 70 -34 47z"/>
<path d="M1213 1120 c0 -25 2 -35 4 -22 2 12 2 32 0 45 -2 12 -4 2 -4 -23z"/>
<path d="M391 1130 c-73 -11 -107 -46 -121 -123 -7 -35 -10 -170 -8 -345 4
-404 -9 -389 328 -395 118 -2 270 -1 337 2 118 6 123 7 153 36 16 16 35 46 40
66 6 21 10 173 10 344 1 443 26 416 -400 421 -157 1 -309 -1 -339 -6z m649
-26 c74 -30 75 -36 75 -394 0 -283 -2 -318 -18 -347 -10 -18 -24 -33 -33 -33
-8 0 -13 -4 -10 -8 6 -11 -695 -12 -716 -1 -9 5 -26 24 -37 43 -20 32 -21 46
-21 342 0 445 -31 414 412 414 261 0 314 -2 348 -16z m-20 -804 c-8 -5 -24 -9
-35 -9 -20 0 -20 0 0 9 11 5 27 9 35 9 13 1 13 0 0 -9z m-182 -7 c-10 -2 -28
-2 -40 0 -13 2 -5 4 17 4 22 1 32 -1 23 -4z m105 0 c-13 -2 -33 -2 -45 0 -13
2 -3 4 22 4 25 0 35 -2 23 -4z"/>
<path d="M1223 800 c0 -25 2 -35 4 -22 2 12 2 32 0 45 -2 12 -4 2 -4 -23z"/>
<path d="M1183 425 c0 -22 2 -30 4 -17 2 12 2 30 0 40 -3 9 -5 -1 -4 -23z"/>
</g>
</svg>
