<?xml version="1.0" encoding="utf-8"?>
<!-- Generator: Adobe Illustrator 21.0.0, SVG Export Plug-In . SVG Version: 6.00 Build 0)  -->
<svg version="1.1" id="Laag_1" xmlns="http://www.w3.org/2000/svg" xmlns:xlink="http://www.w3.org/1999/xlink" x="0px" y="0px"
	 viewBox="0 0 100 125" style="enable-background:new 0 0 100 125;" xml:space="preserve">
<path d="M12.5,125h75c4.1,0,7.5-4.7,7.5-10.4V10.4C95,4.7,91.6,0,87.5,0h-75C8.4,0,5,4.7,5,10.4v104.2C5,120.3,8.4,125,12.5,125z
	 M10,10.4c0-1.9,1.1-3.5,2.5-3.5h75c1.4,0,2.5,1.5,2.5,3.5v104.2c0,1.9-1.1,3.5-2.5,3.5h-75c-1.4,0-2.5-1.5-2.5-3.5V10.4z"/>
<path d="M62.5,51.3c3.4,0,6.3-2.8,6.3-6.3s-2.8-6.3-6.3-6.3s-6.3,2.8-6.3,6.3S59.1,51.3,62.5,51.3z M62.5,41.3
	c2.1,0,3.8,1.7,3.8,3.8s-1.7,3.8-3.8,3.8s-3.8-1.7-3.8-3.8S60.4,41.3,62.5,41.3z"/>
<path d="M37.5,51.3c3.4,0,6.3-2.8,6.3-6.3s-2.8-6.3-6.3-6.3s-6.3,2.8-6.3,6.3S34.1,51.3,37.5,51.3z M37.5,41.3
	c2.1,0,3.8,1.7,3.8,3.8s-1.7,3.8-3.8,3.8s-3.8-1.7-3.8-3.8S35.4,41.3,37.5,41.3z"/>
<path d="M20.4,51.3h3.3v10.3c0,0.2,0.1,0.5,0.2,0.7c5.8,8.8,15.6,14,26,14s20.2-5.2,26-14c0.1-0.2,0.2-0.4,0.2-0.7V51.3h3.3
	c0.6,0,1.1-0.4,1.2-1c0.3-1.7,0.4-3.5,0.4-5.2s-0.1-3.5-0.4-5.2c-0.1-0.6-0.6-1-1.2-1h-3.3V28.4c0-0.2-0.1-0.5-0.2-0.7
	c-5.8-8.8-15.6-14-26-14s-20.2,5.2-26,14c-0.1,0.2-0.2,0.4-0.2,0.7v10.3h-3.3c-0.6,0-1.1,0.4-1.2,1c-0.3,1.7-0.4,3.5-0.4,5.2
	s0.1,3.5,0.4,5.2C19.3,50.8,19.8,51.3,20.4,51.3z M51.3,73.7c-0.4,0-0.8,0-1.3,0s-0.8,0-1.3,0v-1.2c0-0.7,0.6-1.3,1.3-1.3
	s1.3,0.6,1.3,1.3V73.7z M48.8,16.3c0.4,0,0.8,0,1.3,0s0.8,0,1.3,0v1.2c0,0.7-0.6,1.3-1.3,1.3s-1.3-0.6-1.3-1.3V16.3z M21.5,41.3H25
	c0.7,0,1.3-0.6,1.3-1.3V28.8c4.7-6.8,11.9-11.2,20-12.3v1c0,2.1,1.7,3.8,3.8,3.8s3.8-1.7,3.8-3.8v-1c8.1,1.1,15.3,5.5,20,12.3V40
	c0,0.7,0.6,1.3,1.3,1.3h3.5c0.2,1.3,0.2,2.5,0.2,3.8s-0.1,2.5-0.2,3.8H75c-0.7,0-1.3,0.6-1.3,1.3v11.2c-4.7,6.8-11.9,11.2-20,12.3
	v-1c0-2.1-1.7-3.8-3.8-3.8s-3.8,1.7-3.8,3.8v1c-8.1-1.1-15.3-5.5-20-12.3V50c0-0.7-0.6-1.3-1.3-1.3h-3.5c-0.2-1.3-0.2-2.5-0.2-3.8
	S21.3,42.5,21.5,41.3z"/>
<path d="M50.5,107.3c3.4,0,6.3-2.8,6.3-6.3s-2.8-6.3-6.3-6.3s-6.3,2.8-6.3,6.3S47.1,107.3,50.5,107.3z M50.5,97.3
	c2.1,0,3.8,1.7,3.8,3.8s-1.7,3.8-3.8,3.8s-3.8-1.7-3.8-3.8S48.4,97.3,50.5,97.3z"/>
</svg>
